<svg version="1.1" id="Calque_1" xmlns="http://www.w3.org/2000/svg" xmlns:xlink="http://www.w3.org/1999/xlink" x="0px" y="0px" viewBox="0 0 99.3 90" style="enable-background:new 0 0 99.3 90;" xml:space="preserve">
<style type="text/css">
	.st0{fill:#FF9E5D;}
	.st1{fill:#ff6600;}
	.st2{fill:#FFFFFF;}
	.st3{fill:#240046;}
</style>
<g>
	<g>
		<path class="st0" d="M59.8,1H42.1v88.1h21.1V4.5C63.2,2.6,61.7,1,59.8,1z"/>
	</g>
	<g>
		<path class="st1" d="M59.8,1h-6c1.9,0,3.4,1.5,3.4,3.4v84.7h6V4.5C63.2,2.6,61.7,1,59.8,1z"/>
		<path class="st1" d="M59.8,1.4c1.7,0,3,1.3,3,3v84.3h-5.2V4.5c0-1.2-0.6-2.3-1.4-3H59.8 M59.8,1h-6c1.9,0,3.4,1.5,3.4,3.4v84.7h6    V4.5C63.2,2.6,61.7,1,59.8,1L59.8,1z"/>
	</g>
	<path d="M64.1,90H41.3V0.2h18.5c2.4,0,4.3,1.9,4.3,4.3V90z M43,88.3h19.3V4.5c0-1.4-1.2-2.6-2.6-2.6H43V88.3z"/>
	<path class="st2" d="M39.4,1.2L12.3,19.7c-1,0.7-1.5,1.7-1.5,2.9v66.5h31.4V2.6C42.1,1.2,40.6,0.4,39.4,1.2z"/>
	<g>
		<polygon class="st0" points="16.8,16.7 16.8,89.1 23.2,89.1 23.2,12.2   "/>
	</g>
	<path d="M43,90H9.9V22.6c0-1.4,0.7-2.8,1.9-3.6L38.9,0.5c0.8-0.5,1.8-0.6,2.7-0.2C42.5,0.8,43,1.6,43,2.6V90z M11.6,88.3h29.7V2.6   c0-0.3-0.2-0.6-0.5-0.8c-0.3-0.2-0.6-0.1-0.9,0.1L12.8,20.5c-0.7,0.5-1.1,1.3-1.1,2.2V88.3z M39.4,1.2L39.4,1.2L39.4,1.2z"/>
	<path d="M98.4,90H0.9C0.4,90,0,89.6,0,89.1s0.4-0.9,0.9-0.9h97.6c0.5,0,0.9,0.4,0.9,0.9S98.9,90,98.4,90z"/>
	<path d="M62.8,15.2H37.4c-0.5,0-0.9-0.4-0.9-0.9s0.4-0.9,0.9-0.9h25.4c0.5,0,0.9,0.4,0.9,0.9S63.2,15.2,62.8,15.2z"/>
	<path d="M62.8,29.8H33.1c-0.5,0-0.9-0.4-0.9-0.9s0.4-0.9,0.9-0.9h29.7c0.5,0,0.9,0.4,0.9,0.9S63.2,29.8,62.8,29.8z"/>
	<path d="M62.8,44.4h-34c-0.5,0-0.9-0.4-0.9-0.9s0.4-0.9,0.9-0.9h34c0.5,0,0.9,0.4,0.9,0.9S63.2,44.4,62.8,44.4z"/>
	<path d="M62.8,59H24.5c-0.5,0-0.9-0.4-0.9-0.9s0.4-0.9,0.9-0.9h38.3c0.5,0,0.9,0.4,0.9,0.9S63.2,59,62.8,59z"/>
	<path d="M62.8,73.7H20.2c-0.5,0-0.9-0.4-0.9-0.9s0.4-0.9,0.9-0.9h42.6c0.5,0,0.9,0.4,0.9,0.9S63.2,73.7,62.8,73.7z"/>
	<path d="M55.9,90H49v-9.9h6.9V90z M50.7,88.3h3.4v-6.4h-3.4V88.3z"/>
	<g>
		<circle class="st1" cx="81.3" cy="21.6" r="8.6"/>
		<path class="st1" d="M81.3,13.5c4.5,0,8.2,3.7,8.2,8.2s-3.7,8.2-8.2,8.2c-4.5,0-8.2-3.7-8.2-8.2S76.7,13.5,81.3,13.5 M81.3,13    c-4.7,0-8.6,3.8-8.6,8.6c0,4.7,3.8,8.6,8.6,8.6c4.7,0,8.6-3.8,8.6-8.6C89.8,16.9,86,13,81.3,13L81.3,13z"/>
	</g>
	<g>
		<path d="M72.4,49.1h-5.8c-0.5,0-0.9-0.4-0.9-0.9s0.4-0.9,0.9-0.9h4.1c0.2-0.9,0.6-1.8,1.3-2.5c0.9-0.9,2.1-1.4,3.3-1.4    c1.3,0,2.4,0.5,3.3,1.4c0.3,0.3,0.3,0.9,0,1.2c-0.3,0.3-0.9,0.3-1.2,0c-0.6-0.6-1.3-0.9-2.1-0.9c-0.8,0-1.6,0.3-2.1,0.9    c-0.6,0.6-0.9,1.3-0.9,2.1V49.1z"/>
		<path d="M97.2,49.1h-8v-0.9c0-0.7-0.3-1.4-0.8-1.8c-0.5-0.5-1.2-0.8-1.8-0.8c-0.5,0-0.9-0.4-0.9-0.9s0.4-0.9,0.9-0.9    c1.2,0,2.2,0.5,3.1,1.3c0.6,0.6,1,1.4,1.2,2.2h6.4c0.5,0,0.9,0.4,0.9,0.9S97.6,49.1,97.2,49.1z"/>
		<path d="M85.8,47.5c-0.1,0-0.2,0-0.4-0.1c-0.4-0.2-0.6-0.7-0.4-1.1c0.3-0.5,0.4-1.1,0.4-1.7c0-1.1-0.4-2.1-1.2-2.8    c-0.7-0.7-1.7-1.2-2.8-1.2c-1.1,0-2.1,0.4-2.8,1.2c-0.7,0.7-1.2,1.7-1.2,2.8c0,0.5-0.4,0.9-0.9,0.9s-0.9-0.4-0.9-0.9    c0-1.5,0.6-2.9,1.7-4c1.1-1.1,2.5-1.7,4-1.7c1.5,0,2.9,0.6,4,1.7c1.1,1.1,1.7,2.5,1.7,4c0,0.9-0.2,1.7-0.5,2.4    C86.4,47.3,86.1,47.5,85.8,47.5z"/>
	</g>
	<circle class="st2" cx="72.2" cy="81.4" r="3.9"/>
	<g>
		<path class="st0" d="M72.2,77.5c0,0-0.1,0-0.1,0c0.9,0.7,1.4,1.8,1.4,3c0,2.1-1.7,3.8-3.7,3.9c0.7,0.5,1.5,0.9,2.4,0.9    c2.1,0,3.9-1.7,3.9-3.9C76.1,79.3,74.4,77.5,72.2,77.5z"/>
	</g>
	<circle class="st2" cx="85.1" cy="81.4" r="3.9"/>
	<g>
		<path class="st0" d="M85.1,77.5c-0.3,0-0.7,0.1-1,0.1c1.1,0.7,1.9,1.9,1.9,3.3c0,1.8-1.2,3.3-2.9,3.7c0.6,0.4,1.3,0.6,2,0.6    c2.1,0,3.9-1.7,3.9-3.9C89,79.3,87.3,77.5,85.1,77.5z"/>
	</g>
	<path d="M72.2,86.1c-2.6,0-4.7-2.1-4.7-4.7s2.1-4.7,4.7-4.7s4.7,2.1,4.7,4.7S74.8,86.1,72.2,86.1z M72.2,78.4c-1.7,0-3,1.4-3,3   s1.3,3,3,3s3-1.4,3-3S73.9,78.4,72.2,78.4z"/>
	<path class="st3" d="M72.2,89.7c-0.5,0-0.9-0.4-0.9-0.9v-3.6c0-0.5,0.4-0.9,0.9-0.9s0.9,0.4,0.9,0.9v3.6   C73.1,89.3,72.7,89.7,72.2,89.7z"/>
	<path d="M85.1,86.1c-2.6,0-4.7-2.1-4.7-4.7s2.1-4.7,4.7-4.7c2.6,0,4.7,2.1,4.7,4.7S87.7,86.1,85.1,86.1z M85.1,78.4   c-1.7,0-3,1.4-3,3s1.3,3,3,3c1.7,0,3-1.4,3-3S86.8,78.4,85.1,78.4z"/>
	<path class="st3" d="M85.1,89.7c-0.5,0-0.9-0.4-0.9-0.9v-3.6c0-0.5,0.4-0.9,0.9-0.9s0.9,0.4,0.9,0.9v3.6   C86,89.3,85.6,89.7,85.1,89.7z"/>
</g>
</svg>